<svg version="1.2" xmlns="http://www.w3.org/2000/svg" viewBox="0 0 384 512" width="25" height="33">
	<style>
		.s0 { fill: #000000 } 
	</style>
	<path class="s0" d="m365.3 93.38l-74.63-74.64c-12.07-12-28.37-18.74-45.27-18.74h-181.4c-35.35 0-64 28.65-64 64l0.01 384c0 35.34 28.65 64 64 64h255.99c35.2 0 64-28.8 64-64v-309.4c0-16.9-6.7-33.2-18.7-45.22zm-29.3 354.62c0 8.84-7.16 16-16 16h-255.98c-8.84 0-16-7.16-16-16l-0.02-383.87c0-8.84 7.16-16 16-16h160v79.87c0 17.67 14.33 32 32 32h79.1v288zm-240-168c0 13.3 10.8 24 24 24h144c13.3 0 24-10.7 24-24 0-13.3-10.7-24-24-24h-144c-13.2 0-24 10.8-24 24zm168 72h-144c-13.2 0-24 10.8-24 24 0 13.2 10.75 24 24 24h144c13.25 0 24-10.75 24-24 0-13.25-10.7-24-24-24z"/>
</svg>