<svg width="33" height="41" viewBox="0 0 33 41" fill="none" xmlns="http://www.w3.org/2000/svg">
<path d="M5.28708 17.2278C6.59719 15.4536 8.30348 14.0099 10.2701 13.0117C12.2366 12.0134 14.4092 11.4882 16.6146 11.4778C18.8201 11.4874 20.9929 12.0123 22.9596 13.0107C24.9263 14.009 26.6325 15.4531 27.9421 17.2278M9.34083 20.2753C10.167 19.11 11.2561 18.1557 12.5198 17.4897C13.7835 16.8237 15.1863 16.4648 16.6146 16.4419C18.0429 16.4648 19.4457 16.8237 20.7094 17.4897C21.9731 18.1557 23.0621 19.11 23.8883 20.2753M13.1167 23.1024C13.5236 22.5589 14.0517 22.1177 14.6588 21.8139C15.266 21.51 15.9356 21.3518 16.6146 21.3518C17.2935 21.3518 17.9632 21.51 18.5703 21.8139C19.1775 22.1177 19.7055 22.5589 20.1125 23.1024" stroke="black" stroke-width="2.7" stroke-linecap="round" stroke-linejoin="round"/>
<path d="M16.6146 39.3175C18.2342 39.3175 31.2292 31.8713 31.2292 23.0833V3.91667C27.3958 3.91667 16.6146 2 16.6146 2C16.6146 2 5.82375 3.91667 2 3.91667V23.0833C2 31.8713 14.995 39.3175 16.6146 39.3175Z" stroke="black" stroke-width="2.7" stroke-linecap="round" stroke-linejoin="round"/>
</svg>
